#!OML:ASF F:\VICON\USERDATA\INSTALL\rory3\rory3.ASF
:FULLY-SPECIFIED
:DEGREES
333
root 7.78581 17.9176 6.33355 -186.378 10.1253 183.342
lowerback 15.2047 0.983256 3.61395
upperback 1.73619 2.24905 1.22189
thorax -6.59532 1.12593 -1.22136
lowerneck -16.8944 -6.07689 -11.3152
upperneck 36.4179 -4.58591 6.02897
head 16.4106 -1.64216 4.06984
rclavicle -2.06612e-014 -5.06901e-015
rhumerus -24.7772 -10.8603 -79.8792
rradius 37.3507
rwrist 4.36625
rhand -15.0137 4.53671
rfingers 7.12502
rthumb 11.1516 -25.147
lclavicle -2.06612e-014 -5.06901e-015
lhumerus -37.7243 16.1822 77.8423
lradius 23.7036
lwrist -9.61405
lhand -15.8833 25.797
lfingers 7.12502
lthumb 10.3127 55.5242
rfemur 9.36423 -4.1816 21.4372
rtibia 25.1426
rfoot -14.2576 -4.30309
rtoes -14.6869
lfemur -23.629 -6.70723 -15.4877
ltibia 47.5849
lfoot -5.33915 -11.1238
ltoes -21.524
334
root 7.74535 17.9299 6.4209 -186.501 10.5463 183.377
lowerback 15.2481 0.917707 3.56968
upperback 1.78379 2.16949 1.32182
thorax -6.57774 1.09332 -1.07515
lowerneck -16.831 -6.05643 -11.3656
upperneck 36.3513 -4.60422 6.12434
head 16.3674 -1.65053 4.11276
rclavicle 1.09207e-014 7.55382e-015
rhumerus -24.8612 -10.8292 -79.7598
rradius 37.3199
rwrist 4.44788
rhand -14.7659 4.17198
rfingers 7.12502
rthumb 11.3905 -25.4986
lclavicle 1.09207e-014 7.55382e-015
lhumerus -37.6511 16.3998 78.0724
lradius 23.4714
lwrist -9.59215
lhand -15.8805 25.5869
lfingers 7.12502
lthumb 10.3155 55.314
rfemur 8.99694 -3.98045 21.3454
rtibia 25.4093
rfoot -13.9668 -3.88218
rtoes -13.6368
lfemur -23.3345 -6.81042 -15.5154
ltibia 48.7822
lfoot -5.07073 -11.3211
ltoes -18.7084
335
root 7.70466 17.9477 6.50363 -186.626 11.0226 183.325
lowerback 15.308 0.867478 3.4188
upperback 1.82671 2.08815 1.38289
thorax -6.5759 1.06072 -0.91002
lowerneck -16.908 -6.04861 -11.2213
upperneck 36.3379 -4.64855 6.08108
head 16.3753 -1.6632 4.05585
rclavicle 1.37658e-014 2.16675e-014
rhumerus -24.974 -10.8125 -79.67
rradius 37.2704
rwrist 4.48124
rhand -14.4757 4.36938
rfingers 7.12502
rthumb 11.6704 -25.2856
lclavicle 1.37658e-014 2.16675e-014
lhumerus -37.655 16.6768 78.2332
lradius 23.4019
lwrist -9.5893
lhand -15.9555 25.8567
lfingers 7.12502
lthumb 10.2431 55.5873
rfemur 8.6224 -3.91206 21.1064
rtibia 25.6426
rfoot -13.67 -3.37783
rtoes -13.521
lfemur -22.9747 -6.91949 -15.6319
ltibia 49.9559
lfoot -4.8362 -11.5755
ltoes -16.1529
336
root 7.66184 17.9731 6.58502 -186.711 11.5361 183.298
lowerback 15.3208 0.842882 3.3996
upperback 1.85762 2.05413 1.39036
thorax -6.55217 1.04616 -0.884309
lowerneck -16.7961 -6.09606 -11.1913
upperneck 36.1673 -4.86617 6.28467
head 16.2907 -1.73238 4.08835
rclavicle 2.86995e-015 8.15017e-015
rhumerus -25.0539 -10.8885 -79.5974
rradius 37.0543
rwrist 4.35102
rhand -14.3968 4.9345
rfingers 7.12502
rthumb 11.7465 -24.7161
lclavicle 2.86995e-015 8.15017e-015
lhumerus -37.6515 16.5902 78.4782
lradius 23.4419
lwrist -9.46428
lhand -15.9425 26.0775
lfingers 7.12502
lthumb 10.2557 55.8075
rfemur 8.23471 -3.7633 20.9121
rtibia 25.7908
rfoot -13.2852 -2.86149
rtoes -13.0387
lfemur -22.5974 -6.99201 -15.7279
ltibia 51.1151
lfoot -4.79585 -11.8769
ltoes -17.6568
337
root 7.6199 17.9999 6.66569 -186.777 12.0987 183.282
lowerback 15.2843 0.827322 3.30713
upperback 1.89341 2.02181 1.45177
thorax -6.50039 1.03576 -0.759147
lowerneck -16.6085 -6.15973 -11.294
upperneck 35.9176 -5.07551 6.47886
head 16.1543 -1.82265 4.13611
rclavicle -3.87133e-014 -1.19271e-014
rhumerus -25.1936 -10.6589 -79.4978
rradius 36.9857
rwrist 4.03366
rhand -14.3705 5.48168
rfingers 7.12502
rthumb 11.7719 -24.1675
lclavicle -3.87133e-014 -1.19271e-014
lhumerus -37.7107 16.3922 78.8597
lradius 23.612
lwrist -9.25776
lhand -16.0023 26.0677
lfingers 7.12502
lthumb 10.1979 55.8005
rfemur 7.87031 -3.54211 20.7667
rtibia 25.8548
rfoot -12.8852 -2.44104
rtoes -12.756
lfemur -22.1805 -6.97065 -15.7965
ltibia 52.2692
lfoot -4.795 -12.3366
ltoes -19.7243
338
root 7.57892 18.0199 6.74656 -186.885 12.5853 183.31
lowerback 15.3015 0.774566 3.15583
upperback 1.96676 1.94239 1.57297
thorax -6.4436 1.00753 -0.529071
lowerneck -16.6146 -6.14476 -11.2022
upperneck 35.7693 -5.08792 6.35749
head 16.072 -1.84719 4.05036
rclavicle -1.18028e-015 -1.98785e-016
rhumerus -25.2099 -10.5081 -79.3692
rradius 36.8204
rwrist 3.96023
rhand -14.4267 6.10914
rfingers 7.12502
rthumb 11.7177 -23.5431
lclavicle -1.18028e-015 -1.98785e-016
lhumerus -37.6538 16.2332 79.3309
lradius 23.8147
lwrist -9.13717
lhand -16.0034 26.0073
lfingers 7.12502
lthumb 10.1968 55.7402
rfemur 7.61339 -3.35987 20.6906
rtibia 25.8454
rfoot -12.5235 -2.11726
rtoes -12.6531
lfemur -21.706 -7.03138 -15.7943
ltibia 53.4084
lfoot -4.45835 -13.1209
ltoes -19.0126
339
root 7.53569 18.0359 6.82575 -187.003 13.1257 183.603
lowerback 15.4016 0.691069 3.30275
upperback 2.06265 1.88484 1.72565
thorax -6.39938 0.986014 -0.440204
lowerneck -16.7048 -6.1149 -11.1204
upperneck 35.7282 -5.10795 6.39276
head 16.0711 -1.8489 4.0426
rclavicle 4.4565e-014 1.76918e-014
rhumerus -25.1788 -10.523 -79.3321
rradius 36.6255
rwrist 4.07579
rhand -14.5416 6.368
rfingers 7.12502
rthumb 11.6069 -23.2906
lclavicle 4.4565e-014 1.76918e-014
lhumerus -37.4617 15.7855 79.8627
lradius 23.9886
lwrist -8.73087
lhand -15.9 25.7697
lfingers 7.12502
lthumb 10.2966 55.4977
rfemur 7.44595 -3.19422 20.8987
rtibia 25.77
rfoot -12.1098 -1.75528
rtoes -12.9297
lfemur -21.1397 -7.09369 -15.495
ltibia 54.5224
lfoot -3.91647 -13.9846
ltoes -17.7989
340
root 7.49494 18.0601 6.90672 -186.957 13.7805 183.754
lowerback 15.3581 0.674406 3.25996
upperback 2.06726 1.86319 1.8405
thorax -6.37657 0.978958 -0.288984
lowerneck -16.6129 -6.12373 -11.2198
upperneck 35.6365 -5.19812 6.58894
head 16.0249 -1.88177 4.12389
rclavicle 5.93869e-015 8.54774e-015
rhumerus -25.2511 -10.5521 -79.2596
rradius 36.4342
rwrist 4.27028
rhand -14.2699 6.46537
rfingers 7.12502
rthumb 11.8689 -23.1782
lclavicle 5.93869e-015 8.54774e-015
lhumerus -37.3461 15.2303 80.3885
lradius 24.1865
lwrist -8.27891
lhand -15.7724 25.6345
lfingers 7.12502
lthumb 10.4197 55.3563
rfemur 7.04341 -2.9015 20.9944
rtibia 25.7282
rfoot -11.6499 -1.35163
rtoes -12.477
lfemur -20.7198 -7.01351 -15.2963
ltibia 55.5552
lfoot -3.45573 -14.8322
ltoes -18.7636
341
root 7.45762 18.0858 6.98137 -186.889 14.5211 183.704
lowerback 15.1769 0.692522 2.98931
upperback 2.01176 1.83031 1.91179
thorax -6.34709 0.965951 -0.0504991
lowerneck -16.3157 -6.03584 -11.1969
upperneck 35.4811 -5.12225 6.58408
head 15.8631 -1.85515 4.12274
rclavicle -7.36746e-015 -2.28602e-014
rhumerus -25.4174 -10.4848 -79.1556
rradius 36.1712
rwrist 4.3919
rhand -14.1219 6.71384
rfingers 7.12502
rthumb 12.0116 -22.9215
lclavicle -7.36746e-015 -2.28602e-014
lhumerus -37.4593 14.8754 80.7816
lradius 24.375
lwrist -8.21741
lhand -15.9092 25.7738
lfingers 7.12502
lthumb 10.2878 55.5022
rfemur 6.53241 -2.56902 20.8707
rtibia 25.8572
rfoot -11.3356 -0.888232
rtoes -12.2995
lfemur -20.2672 -6.9024 -15.272
ltibia 56.4798
lfoot -2.66278 -15.637
ltoes -20.0528
342
root 7.41134 18.0929 7.05501 -186.967 15.239 183.646
lowerback 15.118 0.697895 2.83991
upperback 2.01424 1.80848 1.93771
thorax -6.31758 0.958179 0.0669843
lowerneck -16.0723 -5.95056 -11.0886
upperneck 35.3637 -5.07042 6.58364
head 15.7331 -1.82419 4.1064
rclavicle -3.88873e-015 -2.78299e-014
rhumerus -25.6056 -10.327 -79.0945
rradius 36.0023
rwrist 4.35467
rhand -14.2484 6.5864
rfingers 7.12502
rthumb 11.8896 -23.056
lclavicle -3.88873e-015 -2.78299e-014
lhumerus -37.431 14.1885 81.3277
lradius 24.4925
lwrist -8.17704
lhand -16.3731 26.8753
lfingers 7.12502
lthumb 9.84016 56.6254
rfemur 6.1048 -2.25402 20.69
rtibia 26.1399
rfoot -11.1606 -0.419891
rtoes -12.1973
lfemur -19.537 -6.90256 -15.344
ltibia 57.2686
lfoot -1.91428 -16.2702
ltoes -19.3301
343
root 7.35663 18.0838 7.13518 -186.99 15.8293 183.543
lowerback 15.0415 0.657869 2.72903
upperback 2.07005 1.73034 1.91389
thorax -6.21949 0.92395 0.121962
lowerneck -16.0832 -5.94055 -11.1468
upperneck 35.3129 -5.1426 6.80112
head 15.7284 -1.84096 4.19465
rclavicle -5.74488e-014 4.77083e-015
rhumerus -25.6644 -10.3767 -79.0981
rradius 35.871
rwrist 4.46916
rhand -14.1538 6.17563
rfingers 7.12502
rthumb 11.9808 -23.4615
lclavicle -5.74488e-014 4.77083e-015
lhumerus -37.2332 13.5091 81.8427
lradius 24.9631
lwrist -8.18957
lhand -15.5016 28.9272
lfingers 7.12502
lthumb 10.6809 58.6357
rfemur 5.5426 -2.07474 20.4258
rtibia 26.4396
rfoot -10.9884 0.0247443
rtoes -11.7955
lfemur -18.7741 -6.93884 -15.55
ltibia 57.9383
lfoot -1.97393 -16.7842
ltoes -20.323
344
root 7.30075 18.0867 7.21501 -186.953 16.4101 183.421
lowerback 14.9782 0.594024 2.56777
upperback 2.05743 1.60838 1.87906
thorax -6.20281 0.865084 0.201731
lowerneck -15.9934 -5.88041 -11.1028
upperneck 35.2467 -5.14119 6.91975
head 15.6744 -1.82526 4.23454
rclavicle -4.79568e-014 1.17283e-014
rhumerus -25.7653 -10.6021 -79.0336
rradius 35.6375
rwrist 4.92585
rhand -14.0495 6.45379
rfingers 7.12502
rthumb 12.0814 -23.1774
lclavicle -4.79568e-014 1.17283e-014
lhumerus -37.0977 12.8591 82.2941
lradius 25.5906
lwrist -8.07093
lhand -14.203 30.3901
lfingers 7.12502
lthumb 11.9333 60.03
rfemur 4.89589 -1.92488 20.1448
rtibia 26.7275
rfoot -10.8263 0.515759
rtoes -11.0301
lfemur -18.1109 -7.05489 -15.7358
ltibia 58.5346
lfoot -1.62812 -17.2958
ltoes -20.9644
345
root 7.24676 18.1104 7.28933 -186.984 17.0291 183.353
lowerback 15.0333 0.561925 2.42595
upperback 1.97354 1.54009 1.8942
thorax -6.32723 0.829774 0.310384
lowerneck -15.7352 -5.81928 -11.0676
upperneck 35.2095 -5.09073 6.9282
head 15.586 -1.79989 4.2399
rclavicle -3.77691e-015 -6.75868e-015
rhumerus -26.0124 -10.8288 -78.7839
rradius 35.3508
rwrist 5.40978
rhand -14.2832 6.78584
rfingers 7.12502
rthumb 11.856 -22.8585
lclavicle -3.77691e-015 -6.75868e-015
lhumerus -37.1398 11.8581 82.9443
lradius 26.1091
lwrist -7.55177
lhand -13.8147 31.0576
lfingers 7.12502
lthumb 12.3078 60.6754
rfemur 4.42675 -1.72183 19.9337
rtibia 26.9475
rfoot -10.6747 1.02262
rtoes -10.5851
lfemur -17.4612 -7.25155 -15.8192
ltibia 59.0903
lfoot -0.12671 -17.9176
ltoes -18.2267
